<svg width="35" height="35" viewBox="0 0 35 35" fill="none" xmlns="http://www.w3.org/2000/svg">
<rect width="34.8777" height="34.8777" rx="5" fill="white" fill-opacity="0.85"/>
<path d="M16.361 17.4481C16.153 17.4652 15.959 17.5599 15.8176 17.7135C15.6762 17.867 15.5977 18.0681 15.5977 18.2768C15.5977 18.4856 15.6762 18.6867 15.8176 18.8402C15.959 18.9937 16.153 19.0884 16.361 19.1056C16.4657 19.1017 16.5686 19.0772 16.6637 19.0334C16.7589 18.9896 16.8444 18.9273 16.9154 18.8503C16.9864 18.7732 17.0414 18.6829 17.0773 18.5845C17.1131 18.486 17.1292 18.3815 17.1244 18.2768C17.1295 18.1721 17.1138 18.0674 17.078 17.9688C17.0423 17.8702 16.9873 17.7797 16.9163 17.7026C16.8452 17.6255 16.7595 17.5632 16.6642 17.5195C16.5689 17.4759 16.4658 17.4516 16.361 17.4481ZM19.0861 17.4481C18.9193 17.4344 18.7522 17.4713 18.6068 17.5541C18.4613 17.6369 18.3442 17.7616 18.2708 17.912C18.1973 18.0624 18.171 18.2315 18.1952 18.3971C18.2194 18.5627 18.293 18.7171 18.4064 18.8402C18.5198 18.9633 18.6677 19.0493 18.8307 19.087C18.9938 19.1247 19.1645 19.1123 19.3204 19.0514C19.4763 18.9906 19.6102 18.8841 19.7046 18.7459C19.799 18.6077 19.8495 18.4442 19.8495 18.2768C19.8543 18.1723 19.8383 18.0679 19.8025 17.9696C19.7668 17.8713 19.7119 17.7811 19.6412 17.704C19.5704 17.627 19.4851 17.5647 19.3901 17.5208C19.2952 17.4769 19.1925 17.4522 19.088 17.4481H19.0861Z" fill="#657791"/>
<path d="M22.7186 11.1836H12.7141C12.5125 11.1841 12.3129 11.2243 12.1268 11.302C11.9408 11.3797 11.7718 11.4933 11.6297 11.6363C11.4875 11.7793 11.375 11.9489 11.2984 12.1355C11.2219 12.322 11.1829 12.5218 11.1836 12.7235V22.8156C11.1829 23.0173 11.2219 23.2171 11.2984 23.4036C11.375 23.5902 11.4875 23.7598 11.6297 23.9028C11.7718 24.0459 11.9408 24.1594 12.1268 24.2371C12.3129 24.3148 12.5125 24.355 12.7141 24.3555H21.1806L20.7849 22.9743L21.7405 23.8609L22.6439 24.6971L24.2491 26.1156V12.7235C24.2499 12.5218 24.2108 12.322 24.1343 12.1355C24.0578 11.9489 23.9452 11.7793 23.8031 11.6363C23.6609 11.4933 23.492 11.3797 23.3059 11.302C23.1198 11.2243 22.9202 11.1841 22.7186 11.1836V11.1836ZM19.8367 20.9361C19.8367 20.9361 19.5679 20.615 19.344 20.3295C19.8855 20.2029 20.3649 19.8889 20.6972 19.4429C20.4285 19.6217 20.1405 19.7694 19.8386 19.8834C19.4913 20.0316 19.128 20.1393 18.756 20.2044C18.1166 20.3221 17.4608 20.3196 16.8223 20.1969C16.4475 20.1236 16.0801 20.0161 15.7248 19.8759C15.4248 19.7596 15.1382 19.6113 14.8699 19.4335C15.1895 19.8705 15.6516 20.1821 16.1765 20.3145C15.9525 20.5982 15.6763 20.9342 15.6763 20.9342C15.2328 20.9462 14.7931 20.8489 14.396 20.6511C13.999 20.4532 13.6566 20.1607 13.3991 19.7994C13.4228 18.2859 13.7898 16.7976 14.4724 15.4467C15.0742 14.9741 15.8079 14.7002 16.5722 14.6628L16.6469 14.7523C15.9284 14.9301 15.258 15.2641 14.6833 15.7304C14.6833 15.7304 14.8476 15.6408 15.1238 15.5139C15.661 15.2687 16.2337 15.11 16.8204 15.0435C16.8622 15.0349 16.9047 15.0299 16.9474 15.0286C17.4477 14.9634 17.954 14.9584 18.4555 15.0137C19.2442 15.1037 20.0076 15.3472 20.7028 15.7304C20.1572 15.2863 19.5236 14.9631 18.8437 14.7822L18.9483 14.6628C19.7125 14.7002 20.4463 14.9741 21.0481 15.4467C21.7307 16.7976 22.0977 18.2859 22.1213 19.7994C21.8619 20.1606 21.5182 20.4531 21.12 20.6512C20.7219 20.8493 20.2813 20.9471 19.8367 20.9361Z" fill="#657791"/>
</svg>
