<svg width="36" height="35" viewBox="0 0 36 35" fill="none" xmlns="http://www.w3.org/2000/svg">
<rect x="0.636719" width="34.8777" height="34.8777" rx="5" fill="white" fill-opacity="0.85"/>
<path d="M27.8711 14.1809C27.8711 14.1809 27.6875 12.8352 27.0759 12.2235C26.3418 11.4283 25.4855 11.4283 25.1185 11.3671C22.3658 11.1836 18.2675 11.1836 18.2675 11.1836C18.2675 11.1836 14.1692 11.1836 11.4166 11.3671C11.0496 11.4283 10.1932 11.4283 9.45917 12.2235C8.84748 12.8352 8.66398 14.1809 8.66398 14.1809C8.66398 14.1809 8.48047 15.7713 8.48047 17.3617V18.8297C8.48047 20.4201 8.66398 22.0105 8.66398 22.0105C8.66398 22.0105 8.84748 23.3562 9.45917 23.9679C10.1932 24.7631 11.1719 24.702 11.6001 24.8243C13.1905 24.9466 18.2675 25.0078 18.2675 25.0078C18.2675 25.0078 22.3658 25.0078 25.1185 24.8243C25.4855 24.7631 26.3418 24.7631 27.0759 23.9679C27.6875 23.3562 27.8711 22.0105 27.8711 22.0105C27.8711 22.0105 28.0546 20.4201 28.0546 18.8297V17.3617C28.0546 15.7713 27.8711 14.1809 27.8711 14.1809ZM16.2489 20.6648V15.1596L21.5095 17.9122L16.2489 20.6648Z" fill="#657791"/>
</svg>
